<svg width="100" height="90" viewBox="0 0 100 90" fill="none" xmlns="http://www.w3.org/2000/svg">
<path d="M8.67869 11.7273H10.8605V24.8182H8.67869V11.7273ZM10.8605 24.8182H17.406V27H10.8605V24.8182ZM17.406 22.6364H19.5878V24.8182H17.406V22.6364ZM10.8605 9.54545H17.406V11.7273H10.8605V9.54545ZM17.406 11.7273H19.5878V13.9091H17.406V11.7273ZM26.3599 9.54545H28.5418V24.8182H37.269V27H26.3599V9.54545ZM44.0412 11.7273H46.223V24.8182H44.0412V11.7273ZM46.223 24.8182H52.7685V27H46.223V24.8182ZM52.7685 11.7273H54.9503V24.8182H52.7685V11.7273ZM46.223 9.54545H52.7685V11.7273H46.223V9.54545ZM61.7224 9.54545H63.9043V20.4545H61.7224V9.54545ZM63.9043 20.4545H66.0861V27H63.9043V20.4545ZM70.4497 9.54545H72.6315V20.4545H70.4497V9.54545ZM68.2679 20.4545H70.4497V27H68.2679V20.4545ZM66.0861 16.0909H68.2679V20.4545H66.0861V16.0909ZM79.4037 9.54545H81.5855V13.9091H83.7673V16.0909H81.5855V27H79.4037V9.54545ZM88.131 20.4545H85.9492V18.2727H88.131V9.54545H90.3128V27H88.131V20.4545ZM85.9492 18.2727H83.7673V16.0909H85.9492V18.2727ZM10.3193 45.5455H12.5011V56.4545H10.3193V45.5455ZM12.5011 56.4545H14.683V63H12.5011V56.4545ZM19.0466 45.5455H21.2284V56.4545H19.0466V45.5455ZM16.8648 56.4545H19.0466V63H16.8648V56.4545ZM14.683 52.0909H16.8648V56.4545H14.683V52.0909ZM32.8006 49.9091H34.9824V54.2727H41.5278V49.9091H43.7097V63H41.5278V56.4545H34.9824V63H32.8006V49.9091ZM37.1642 45.5455H39.346V47.7273H37.1642V45.5455ZM34.9824 47.7273H37.1642V49.9091H34.9824V47.7273ZM39.346 47.7273H41.5278V49.9091H39.346V47.7273ZM55.2818 45.5455H64.0091V47.7273H57.4636V54.2727H64.0091V58.6364H61.8273V56.4545H57.4636V63H55.2818V45.5455ZM64.0091 47.7273H66.1909V54.2727H64.0091V47.7273ZM64.0091 58.6364H66.1909V63H64.0091V58.6364ZM77.7631 45.5455H88.6722V47.7273H79.9449V52.0909H86.4903V54.2727H79.9449V60.8182H88.6722V63H77.7631V45.5455Z" fill="white"/>
<path d="M1.47852 79H2.47852V85H1.47852V79ZM2.47852 85H5.47852V86H2.47852V85ZM5.47852 84H6.47852V85H5.47852V84ZM2.47852 78H5.47852V79H2.47852V78ZM5.47852 79H6.47852V80H5.47852V79ZM10.6824 79H11.6824V85H10.6824V79ZM11.6824 85H14.6824V86H11.6824V85ZM14.6824 79H15.6824V85H14.6824V79ZM11.6824 78H14.6824V79H11.6824V78ZM19.8863 78H23.8863V79H20.8863V82H23.8863V84H22.8863V83H20.8863V86H19.8863V78ZM23.8863 79H24.8863V82H23.8863V79ZM23.8863 84H24.8863V86H23.8863V84ZM29.0902 78H33.0902V79H30.0902V82H33.0902V83H30.0902V86H29.0902V78ZM33.0902 79H34.0902V82H33.0902V79ZM38.2941 79H39.2941V85H38.2941V79ZM39.2941 85H42.2941V86H39.2941V85ZM42.2941 79H43.2941V85H42.2941V79ZM39.2941 78H42.2941V79H39.2941V78ZM47.498 78H51.498V79H48.498V82H51.498V84H50.498V83H48.498V86H47.498V78ZM51.498 79H52.498V82H51.498V79ZM51.498 84H52.498V86H51.498V84ZM56.702 80H57.702V82H60.702V80H61.702V86H60.702V83H57.702V86H56.702V80ZM58.702 78H59.702V79H58.702V78ZM57.702 79H58.702V80H57.702V79ZM59.702 79H60.702V80H59.702V79ZM65.9059 78H70.9059V79H68.9059V86H67.9059V79H65.9059V78ZM77.1098 85V79H75.1098V78H80.1098V79H78.1098V85H80.1098V86H75.1098V85H77.1098ZM84.3137 79H85.3137V85H84.3137V79ZM85.3137 85H88.3137V86H85.3137V85ZM88.3137 79H89.3137V85H88.3137V79ZM85.3137 78H88.3137V79H85.3137V78ZM93.5176 78H94.5176V80H95.5176V81H94.5176V86H93.5176V78ZM97.5176 83H96.5176V82H97.5176V78H98.5176V86H97.5176V83ZM96.5176 82H95.5176V81H96.5176V82Z" fill="#838383"/>
</svg>
